<?xml version="1.0" encoding="UTF-8" standalone="no"?>
<svg id="svg2" xmlns:rdf="http://www.w3.org/1999/02/22-rdf-syntax-ns#" xmlns="http://www.w3.org/2000/svg" height="297mm" width="210mm" version="1.1" xmlns:cc="http://creativecommons.org/ns#" xmlns:dc="http://purl.org/dc/elements/1.1/" viewBox="0 0 744.09448819 1052.3622047">
 <g id="layer1" stroke="#ffc200" fill="#ffc200">
  <ellipse id="path4136" rx="128.57" ry="122.71" cy="341.79" cx="313.14"/>
  <path id="path4138" d="m341.44 204.32c-20.418-2.0158-21.185-2.3593-37.612-1.5595 5.2847-40.92 14.969-81.776 21.268-122.55 4.5029 41.533 8.9812 81.851 16.345 124.11z"/>
  <path id="path4138-3" d="m286.65 480.81c20.418 2.0158 21.185 2.3593 37.612 1.5595-5.2847 40.92-14.969 81.776-21.268 122.55-4.5029-41.533-8.9812-81.851-16.345-124.11z"/>
  <path id="path4138-3-6" d="m361.66 482.85c19.544-6.2429 20.385-6.2319 35.149-13.478 11.369 39.663 18.673 81.011 29.052 120.94-20.597-36.345-40.691-71.585-64.202-107.46z"/>
  <path id="path4138-3-6-7" d="m424.08 450.67c14.083-14.921 14.824-15.318 24.238-28.803 29.142 29.209 55.542 61.859 83.947 91.779-35.61-21.84-70.24-42.96-108.18-62.98z"/>
  <path id="path4138-3-6-7-5" d="m460.61 397.37c4.8401-19.938 5.2872-20.65 6.7832-37.028 39.785 10.933 78.894 26.214 118.39 38.13-41.755-1.326-82.304-2.5071-125.17-1.1016z"/>
  <path id="path4138-3-6-7-5-3" d="m465.13 333.12c-3.9148-20.14-3.8056-20.974-9.2754-36.484 40.72-6.6533 82.639-9.0725 123.51-14.712-38.504 16.206-75.852 32.042-114.23 51.196z"/>
  <path id="path4138-3-6-7-5-3-5" d="m451.05 271.31c-11.115-17.245-11.324-18.06-22.163-30.429 35.336-21.302 73.357-39.118 109.21-59.534-29.73 29.349-58.524 57.923-87.044 89.963z"/>
  <path id="path4138-3-6-7-5-3-5-6" d="m403 227.15c-18.367-9.1444-18.962-9.7384-34.599-14.832 19.49-36.367 43.07-71.109 63.454-106.98-10.56 40.419-20.711 79.695-28.855 121.81z"/>
  <path id="path4138-3-6-2" d="m268.89 480.25c-19.544-6.2429-20.385-6.2319-35.149-13.478-11.369 39.663-18.673 81.011-29.052 120.94 20.597-36.345 40.691-71.585 64.202-107.46z"/>
  <path id="path4138-3-6-7-9" d="m206.47 448.06c-14.083-14.921-14.824-15.318-24.238-28.803-29.142 29.209-55.542 61.859-83.947 91.779 35.613-21.84 70.249-42.956 108.18-62.976z"/>
  <path id="path4138-3-6-7-5-1" d="m169.94 394.76c-4.8401-19.938-5.2872-20.65-6.7832-37.028-39.785 10.933-78.894 26.214-118.39 38.13 41.755-1.326 82.304-2.5071 125.17-1.1016z"/>
  <path id="path4138-3-6-7-5-3-2" d="m165.42 316.51c3.9148-20.14 3.8056-20.974 9.2754-36.484-40.72-6.6533-82.639-9.0725-123.51-14.712 38.504 16.206 75.852 32.042 114.23 51.196z"/>
  <path id="path4138-3-6-7-5-3-5-7" d="m185.5 256.71c11.115-17.245 11.324-18.06 22.163-30.429-35.336-21.302-73.357-39.118-109.21-59.534 29.73 29.349 58.524 57.923 87.044 89.963z"/>
  <path id="path4138-3-6-7-5-3-5-6-0" d="m236.12 215.97c18.367-9.1444 18.962-9.7384 34.599-14.832-19.49-36.367-43.07-71.109-63.454-106.98 10.56 40.419 20.711 79.695 28.855 121.81z"/>
 </g>
</svg>
